<mxfile host="app.diagrams.net" agent="Mozilla/5.0 (Macintosh; Intel Mac OS X 10_15_7) AppleWebKit/537.36 (KHTML, like Gecko) Chrome/129.0.0.0 Safari/537.36" version="24.7.14">
  <diagram name="Page-1" id="vrowM233WRISChpxBJI-">
    <mxGraphModel dx="2202" dy="1427" grid="0" gridSize="10" guides="1" tooltips="1" connect="1" arrows="1" fold="1" page="0" pageScale="1" pageWidth="850" pageHeight="1100" math="0" shadow="0">
      <root>
        <mxCell id="0" />
        <mxCell id="1" parent="0" />
        <mxCell id="hGO_furQGrId-UpABHP7-1" value="" style="rounded=0;whiteSpace=wrap;html=1;fontFamily=Architects Daughter;fontSource=https%3A%2F%2Ffonts.googleapis.com%2Fcss%3Ffamily%3DArchitects%2BDaughter;align=center;fillColor=#bac8d3;strokeColor=#23445d;" vertex="1" parent="1">
          <mxGeometry x="-83" y="-91" width="767" height="274" as="geometry" />
        </mxCell>
        <mxCell id="hGO_furQGrId-UpABHP7-3" value="" style="rounded=0;whiteSpace=wrap;html=1;fontFamily=Architects Daughter;fontSource=https%3A%2F%2Ffonts.googleapis.com%2Fcss%3Ffamily%3DArchitects%2BDaughter;fillColor=#dae8fc;strokeColor=#6c8ebf;" vertex="1" parent="1">
          <mxGeometry x="-63" y="-31" width="237" height="197" as="geometry" />
        </mxCell>
        <mxCell id="hGO_furQGrId-UpABHP7-4" value="" style="rounded=0;whiteSpace=wrap;html=1;fontFamily=Architects Daughter;fontSource=https%3A%2F%2Ffonts.googleapis.com%2Fcss%3Ffamily%3DArchitects%2BDaughter;fillColor=#dae8fc;strokeColor=#6c8ebf;" vertex="1" parent="1">
          <mxGeometry x="200" y="-31" width="237" height="197" as="geometry" />
        </mxCell>
        <mxCell id="hGO_furQGrId-UpABHP7-5" value="&lt;font face=&quot;Helvetica&quot;&gt;Gi1/1&lt;/font&gt;" style="rounded=0;whiteSpace=wrap;html=1;fontFamily=Architects Daughter;fontSource=https%3A%2F%2Ffonts.googleapis.com%2Fcss%3Ffamily%3DArchitects%2BDaughter;fillColor=#ffe6cc;strokeColor=#d79b00;" vertex="1" parent="1">
          <mxGeometry x="-47.5" y="117" width="98" height="37" as="geometry" />
        </mxCell>
        <mxCell id="hGO_furQGrId-UpABHP7-6" value="&lt;font face=&quot;Helvetica&quot;&gt;Gi1/2&lt;/font&gt;" style="rounded=0;whiteSpace=wrap;html=1;fontFamily=Architects Daughter;fontSource=https%3A%2F%2Ffonts.googleapis.com%2Fcss%3Ffamily%3DArchitects%2BDaughter;fillColor=#ffe6cc;strokeColor=#d79b00;" vertex="1" parent="1">
          <mxGeometry x="60.5" y="117" width="98" height="37" as="geometry" />
        </mxCell>
        <mxCell id="hGO_furQGrId-UpABHP7-7" value="Gi1/3" style="rounded=0;whiteSpace=wrap;html=1;fontFamily=Helvetica;fillColor=#ffe6cc;strokeColor=#d79b00;" vertex="1" parent="1">
          <mxGeometry x="215.5" y="117" width="98" height="37" as="geometry" />
        </mxCell>
        <mxCell id="hGO_furQGrId-UpABHP7-8" value="Gi1/4" style="rounded=0;whiteSpace=wrap;html=1;fontFamily=Helvetica;fillColor=#ffe6cc;strokeColor=#d79b00;" vertex="1" parent="1">
          <mxGeometry x="323.5" y="117" width="98" height="37" as="geometry" />
        </mxCell>
        <mxCell id="hGO_furQGrId-UpABHP7-10" value="&lt;font face=&quot;Helvetica&quot;&gt;ams01-edge01&lt;/font&gt;" style="text;strokeColor=none;fillColor=none;html=1;align=center;verticalAlign=middle;whiteSpace=wrap;rounded=0;fontSize=20;fontFamily=Architects Daughter;fontSource=https%3A%2F%2Ffonts.googleapis.com%2Fcss%3Ffamily%3DArchitects%2BDaughter;" vertex="1" parent="1">
          <mxGeometry x="169" y="-81" width="191" height="30" as="geometry" />
        </mxCell>
        <mxCell id="hGO_furQGrId-UpABHP7-11" value="&lt;font face=&quot;Helvetica&quot;&gt;cust1-vdc&lt;/font&gt;" style="text;strokeColor=none;fillColor=none;html=1;align=center;verticalAlign=middle;whiteSpace=wrap;rounded=0;fontSize=20;fontFamily=Architects Daughter;fontSource=https%3A%2F%2Ffonts.googleapis.com%2Fcss%3Ffamily%3DArchitects%2BDaughter;" vertex="1" parent="1">
          <mxGeometry x="-40" y="-16" width="191" height="30" as="geometry" />
        </mxCell>
        <mxCell id="hGO_furQGrId-UpABHP7-12" value="&lt;font face=&quot;Helvetica&quot;&gt;cust2-vdc&lt;/font&gt;" style="text;strokeColor=none;fillColor=none;html=1;align=center;verticalAlign=middle;whiteSpace=wrap;rounded=0;fontSize=20;fontFamily=Architects Daughter;fontSource=https%3A%2F%2Ffonts.googleapis.com%2Fcss%3Ffamily%3DArchitects%2BDaughter;" vertex="1" parent="1">
          <mxGeometry x="223" y="-16" width="191" height="30" as="geometry" />
        </mxCell>
        <mxCell id="hGO_furQGrId-UpABHP7-13" value="&lt;font style=&quot;font-size: 12px;&quot;&gt;Status:&amp;nbsp;&lt;/font&gt;&lt;div&gt;&lt;font style=&quot;font-size: 12px;&quot;&gt;Role:&lt;/font&gt;&lt;/div&gt;&lt;div&gt;&lt;font style=&quot;font-size: 12px;&quot;&gt;Tenant:&amp;nbsp; &amp;nbsp; Customer 1&lt;/font&gt;&lt;/div&gt;&lt;div&gt;&lt;font style=&quot;font-size: 12px;&quot;&gt;Primary IP: 10.0.25.4/24&amp;nbsp;&lt;/font&gt;&lt;/div&gt;" style="text;strokeColor=none;fillColor=none;html=1;align=left;verticalAlign=middle;whiteSpace=wrap;rounded=0;fontSize=20;fontFamily=Helvetica;" vertex="1" parent="1">
          <mxGeometry x="-18.5" y="18" width="148" height="85" as="geometry" />
        </mxCell>
        <mxCell id="hGO_furQGrId-UpABHP7-15" value="&lt;font face=&quot;Helvetica&quot;&gt;Active&lt;/font&gt;" style="rounded=1;whiteSpace=wrap;html=1;fontFamily=Architects Daughter;fontSource=https%3A%2F%2Ffonts.googleapis.com%2Fcss%3Ffamily%3DArchitects%2BDaughter;fillColor=#d5e8d4;strokeColor=#82b366;" vertex="1" parent="1">
          <mxGeometry x="36.5" y="18" width="65" height="20" as="geometry" />
        </mxCell>
        <mxCell id="hGO_furQGrId-UpABHP7-16" value="&lt;font face=&quot;Helvetica&quot;&gt;Edge&lt;/font&gt;" style="rounded=1;whiteSpace=wrap;html=1;fontFamily=Architects Daughter;fontSource=https%3A%2F%2Ffonts.googleapis.com%2Fcss%3Ffamily%3DArchitects%2BDaughter;fillColor=#fad9d5;strokeColor=#ae4132;" vertex="1" parent="1">
          <mxGeometry x="36.5" y="43" width="65" height="20" as="geometry" />
        </mxCell>
        <mxCell id="hGO_furQGrId-UpABHP7-17" value="&lt;font style=&quot;font-size: 12px;&quot;&gt;Status:&amp;nbsp;&lt;/font&gt;&lt;div&gt;&lt;font style=&quot;font-size: 12px;&quot;&gt;Role:&lt;/font&gt;&lt;/div&gt;&lt;div&gt;&lt;font style=&quot;font-size: 12px;&quot;&gt;Tenant:&amp;nbsp; &amp;nbsp; Customer 2&lt;/font&gt;&lt;/div&gt;&lt;div&gt;&lt;font style=&quot;font-size: 12px;&quot;&gt;Primary IP: 172.16.4.65/24&amp;nbsp;&lt;/font&gt;&lt;/div&gt;" style="text;strokeColor=none;fillColor=none;html=1;align=left;verticalAlign=middle;whiteSpace=wrap;rounded=0;fontSize=20;fontFamily=Helvetica;" vertex="1" parent="1">
          <mxGeometry x="248" y="16" width="173.5" height="85" as="geometry" />
        </mxCell>
        <mxCell id="hGO_furQGrId-UpABHP7-18" value="&lt;font face=&quot;Helvetica&quot;&gt;Planned&lt;/font&gt;" style="rounded=1;whiteSpace=wrap;html=1;fontFamily=Architects Daughter;fontSource=https%3A%2F%2Ffonts.googleapis.com%2Fcss%3Ffamily%3DArchitects%2BDaughter;fillColor=#f5f5f5;strokeColor=#666666;fontColor=#333333;" vertex="1" parent="1">
          <mxGeometry x="303" y="16" width="65" height="20" as="geometry" />
        </mxCell>
        <mxCell id="hGO_furQGrId-UpABHP7-19" value="&lt;font face=&quot;Helvetica&quot;&gt;Peer&lt;/font&gt;" style="rounded=1;whiteSpace=wrap;html=1;fontFamily=Architects Daughter;fontSource=https%3A%2F%2Ffonts.googleapis.com%2Fcss%3Ffamily%3DArchitects%2BDaughter;fillColor=#fad9d5;strokeColor=#ae4132;" vertex="1" parent="1">
          <mxGeometry x="303" y="41" width="65" height="20" as="geometry" />
        </mxCell>
        <mxCell id="hGO_furQGrId-UpABHP7-20" value="&lt;font style=&quot;font-size: 12px;&quot;&gt;Status:&amp;nbsp;&lt;/font&gt;&lt;div&gt;&lt;font style=&quot;font-size: 12px;&quot;&gt;Role:&lt;/font&gt;&lt;/div&gt;&lt;div&gt;&lt;span style=&quot;font-size: 12px; background-color: initial;&quot;&gt;Primary IP: 10.45.6.100/24&amp;nbsp;&lt;/span&gt;&lt;br&gt;&lt;/div&gt;" style="text;strokeColor=none;fillColor=none;html=1;align=left;verticalAlign=middle;whiteSpace=wrap;rounded=0;fontSize=20;fontFamily=Helvetica;" vertex="1" parent="1">
          <mxGeometry x="486" y="3.5" width="173.5" height="85" as="geometry" />
        </mxCell>
        <mxCell id="hGO_furQGrId-UpABHP7-22" value="&lt;font face=&quot;Helvetica&quot;&gt;MSP Core&lt;/font&gt;" style="rounded=1;whiteSpace=wrap;html=1;fontFamily=Architects Daughter;fontSource=https%3A%2F%2Ffonts.googleapis.com%2Fcss%3Ffamily%3DArchitects%2BDaughter;fillColor=#e1d5e7;strokeColor=#9673a6;" vertex="1" parent="1">
          <mxGeometry x="540.25" y="38" width="65" height="20" as="geometry" />
        </mxCell>
        <mxCell id="hGO_furQGrId-UpABHP7-24" value="Gi1/5" style="rounded=0;whiteSpace=wrap;html=1;fontFamily=Helvetica;fillColor=#ffe6cc;strokeColor=#d79b00;" vertex="1" parent="1">
          <mxGeometry x="458" y="117" width="98" height="37" as="geometry" />
        </mxCell>
        <mxCell id="hGO_furQGrId-UpABHP7-25" value="Gi1/6" style="rounded=0;whiteSpace=wrap;html=1;fontFamily=Helvetica;fillColor=#ffe6cc;strokeColor=#d79b00;" vertex="1" parent="1">
          <mxGeometry x="566" y="117" width="98" height="37" as="geometry" />
        </mxCell>
        <mxCell id="hGO_furQGrId-UpABHP7-26" value="&lt;font face=&quot;Helvetica&quot;&gt;Active&lt;/font&gt;" style="rounded=1;whiteSpace=wrap;html=1;fontFamily=Architects Daughter;fontSource=https%3A%2F%2Ffonts.googleapis.com%2Fcss%3Ffamily%3DArchitects%2BDaughter;fillColor=#d5e8d4;strokeColor=#82b366;" vertex="1" parent="1">
          <mxGeometry x="540.25" y="10.5" width="65" height="20" as="geometry" />
        </mxCell>
      </root>
    </mxGraphModel>
  </diagram>
</mxfile>
